<?xml version="1.0" encoding="utf-8"?>
<!-- Generator: Adobe Illustrator 13.0.2, SVG Export Plug-In . SVG Version: 6.00 Build 14948)  -->
<!DOCTYPE svg PUBLIC "-//W3C//DTD SVG 1.1//EN" "http://www.w3.org/Graphics/SVG/1.1/DTD/svg11.dtd">
<svg version="1.1"
	 id="svg2" inkscape:export-filename="/private/tmp/LogoStandalone-globeOnly.png" xmlns:dc="http://purl.org/dc/elements/1.1/" xmlns:cc="http://creativecommons.org/ns#" sodipodi:docname="LogoStandalone-globeOnly.pdf" xmlns:rdf="http://www.w3.org/1999/02/22-rdf-syntax-ns#" xmlns:sodipodi="http://sodipodi.sourceforge.net/DTD/sodipodi-0.dtd" inkscape:version="0.48.0 r9654" xmlns:svg="http://www.w3.org/2000/svg" inkscape:export-xdpi="49" inkscape:export-ydpi="49" xmlns:inkscape="http://www.inkscape.org/namespaces/inkscape"
	 xmlns="http://www.w3.org/2000/svg" xmlns:xlink="http://www.w3.org/1999/xlink" x="0px" y="0px" width="765px" height="990px"
	 viewBox="0 0 765 990" enable-background="new 0 0 765 990" xml:space="preserve">
<rect x="243" y="105.5" fill="none" stroke="#000000" width="125" height="124"/>
<sodipodi:namedview  inkscape:window-maximized="0" id="namedview4" inkscape:cx="358.85794" inkscape:cy="766.88371" inkscape:window-x="0" inkscape:window-y="0" inkscape:current-layer="g14" bordercolor="#666666" pagecolor="#ffffff" borderopacity="1" objecttolerance="10" guidetolerance="10" inkscape:pageopacity="0" inkscape:pageshadow="2" inkscape:window-width="640" inkscape:window-height="480" showgrid="false" gridtolerance="10" inkscape:zoom="0.98491553">
	</sodipodi:namedview>
<g>
	<g>
		<g>
			<g>
				<defs>
					<rect id="SVGID_1_" x="-95.625" y="-123.75" width="956.25" height="1237.5"/>
				</defs>
				<clipPath id="SVGID_2_">
					<use xlink:href="#SVGID_1_"  overflow="visible"/>
				</clipPath>
				<g clip-path="url(#SVGID_2_)">
					
						<path id="path3124" inkscape:export-xdpi="49" inkscape:export-ydpi="49" sodipodi:type="arc" sodipodi:cx="390.89645" sodipodi:cy="127.99715" sodipodi:rx="57.872982" sodipodi:ry="43.658566" fill="#FFFFFF" d="
						M291.598,653.457c0-21.755-17.819-39.394-39.8-39.394c-21.98,0-39.801,17.638-39.801,39.394
						c0,21.757,17.82,39.395,39.801,39.395C273.78,692.851,291.598,675.214,291.598,653.457z"/>
					<g>
						<g id="g22">
						</g>
						<g id="g10" transform="matrix(1.25,0,0,-1.25,0,990)" inkscape:groupmode="layer" inkscape:label="LogoStandalone">
							<g id="g20" inkscape:export-xdpi="49" inkscape:export-ydpi="49">
								<g id="g28">
									<defs>
										<rect id="SVGID_3_" x="193.819" y="607.218" width="102.023" height="102.021"/>
									</defs>
									<clipPath id="SVGID_4_">
										<use xlink:href="#SVGID_3_"  overflow="visible"/>
									</clipPath>
									<g id="g30" clip-path="url(#SVGID_4_)">
										<path id="path32" fill="#F39615" d="M283.309,644.666c-7.491-21.25-30.791-32.405-52.043-24.915
											c-21.25,7.491-32.405,30.79-24.914,52.04c7.492,21.251,30.791,32.405,52.043,24.915
											C279.645,689.214,290.797,665.915,283.309,644.666"/>
									</g>
								</g>
							</g>
							
								<path id="path48" inkscape:export-filename="/private/tmp/g20.png" inkscape:export-xdpi="49" inkscape:export-ydpi="49" fill="#F7EF44" d="
								M266.421,627.246c-2.726-2.571-5.611-4.737-8.654-6.487c-0.184,0.03-0.357,0.052-0.546,0.088c-1.899,0.4-5,1.3-9.199,2.8
								c-0.607,0.23-1.216,0.473-1.824,0.718c1.125,0.92,2.236,1.895,3.324,2.982c2.5,2.63,5.125,6.05,7.796,10.191
								c0.401-0.198,0.804-0.4,1.204-0.591c4.1-2,7.6-3.4,10.6-4.3c0.481-0.081,1.08-0.209,1.788-0.375
								C269.531,630.513,268.04,628.833,266.421,627.246 M230.522,632.246l-0.017-0.017c-0.271,0.196-0.523,0.381-0.788,0.573
								l9.547,15.478c5.987-4.185,11.816-7.647,17.484-10.466c-3.991-5.461-8.079-9.718-12.262-12.734
								C239.86,627.057,235.223,629.457,230.522,632.246 M215.26,644.211c1.076,5.093,3.318,10.559,6.716,16.373
								c4.805-4.046,10.342-8.081,16.689-11.956l-10.339-14.816C222.439,638.124,218.104,641.638,215.26,644.211 M205.944,655.421
								c0.449,3.459,1.33,6.906,2.678,10.325c0.724,1.914,1.563,3.743,2.494,5.505c0.403-0.511,0.829-1.041,1.305-1.605
								c2.201-2.5,4.901-5.1,8.3-8c0.244-0.211,0.501-0.423,0.75-0.634c-2.622-3.998-4.658-7.712-6.05-11.066
								c-0.598-1.497-1.08-2.979-1.495-4.452C210.54,648.803,207.879,652.112,205.944,655.421 M219.822,682.746L219.822,682.746
								c2.055,1.863,4.219,3.477,6.486,4.87c0.386-0.63,0.852-1.378,1.413-2.27c1.801-2.2,4-4.6,6.901-7.3
								c0.135-0.119,0.276-0.236,0.414-0.355c-2.81-2.753-5.604-5.912-8.381-9.479l-0.033,0.034c-1.628-2.127-3.1-4.188-4.447-6.189
								c-0.217,0.196-0.44,0.393-0.653,0.589c-3.2,3.1-5.7,5.9-7.601,8.2c-0.652,0.855-1.204,1.643-1.695,2.391
								C214.296,676.721,216.81,679.894,219.822,682.746 M237.822,692.546c3.084,0.793,6.108,1.216,9.068,1.302
								c1.237-1.674,2.738-3.259,4.495-4.768c-5.162-2.188-10.28-5.66-15.345-10.441c-0.137,0.135-0.283,0.273-0.417,0.409
								c-3.595,3.806-6.061,7.02-7.45,9.652C231.209,690.357,234.424,691.633,237.822,692.546 M257.822,692.446l0.03,0.088
								c0.087-0.096,0.175-0.195,0.27-0.288c0.246-0.28,0.526-0.576,0.826-0.873c-2.038-0.37-4.07-0.932-6.095-1.695
								c-1.395,1.434-2.573,2.82-3.538,4.156C252.22,693.724,255.062,693.278,257.822,692.446 M258.122,695.346v0.201
								c0.5,0,0.9,0,1.4-0.201c2-0.599,4.5-1.799,7.6-3.799c2.299-1.5,4-2.901,5.5-4.3c0.7-0.7,1.2-1.3,1.5-1.7l0.299-0.6v-0.099
								c-0.299,0-0.799,0.2-1.5,0.299c-2.099,0.6-4.599,1.901-7.5,3.8c-1.599,1.1-2.7,1.901-3.299,2.401c-1.201,1-2.3,2-3.1,2.9
								c-0.156,0.104-0.286,0.236-0.428,0.42l0.028,0.08c-0.035,0.009-0.069,0.013-0.102,0.023
								C258.405,694.926,258.281,695.106,258.122,695.346 M271.011,677.799c-0.117,2.177-0.421,4.281-0.911,6.313
								c0.524-0.259,1.048-0.46,1.573-0.632c1.863-2.222,3.409-4.682,4.668-7.332C274.699,676.522,272.922,677.072,271.011,677.799
								 M279.721,664.947c0.545-3.466,0.645-6.906,0.332-10.312c-2.952,0.277-6.82,1.256-11.632,2.912
								c-0.272,0.109-0.548,0.227-0.822,0.338c2.376,6.6,3.52,12.707,3.452,18.337c0.123-0.059,0.259-0.127,0.37-0.176
								c1.968-0.984,3.935-1.698,5.902-2.162C278.426,671.092,279.237,668.112,279.721,664.947 M243.545,655.222l0.077-0.076
								l7.514,10.85c5.45-3.745,10.585-6.712,15.339-8.973c-1.231-3.778-2.847-7.736-4.853-11.877
								c-1.363-2.252-2.738-4.34-4.124-6.294c-5.662,2.496-11.72,5.775-18.108,9.633L243.545,655.222L243.545,655.222z
								 M253.056,687.769c1.587-1.188,4-2.892,7.179-5.027l-9.823-16.005c-5.486,3.839-10.016,7.668-13.74,11.283
								C242.177,682.74,247.639,685.997,253.056,687.769 M266.836,658.201c-4.879,2.044-10.063,4.647-15.555,8.007l10.709,15.465
								c3.059-2.021,5.459-3.501,7.221-4.486C269.781,671.5,268.976,665.163,266.836,658.201 M267.221,685.545
								c0.868-2.19,1.46-4.509,1.807-6.945c-2.131,0.904-4.418,2.015-6.857,3.332l3.244,4.682
								C266.031,686.237,266.635,685.876,267.221,685.545 M261.415,689.337c0.552-0.446,1.21-0.927,1.981-1.446l-2.977-4.85
								c-2.284,1.766-4.3,3.474-6.034,5.12C256.736,688.826,259.081,689.227,261.415,689.337 M226.822,668.047l-0.008,0.007
								c2.963,3.455,5.913,6.487,8.851,9.1c4.311-3.677,9.12-7.27,14.574-10.7l-6.771-11.03l-0.047,0.023l-4.61-6.607
								c-6.143,4.355-11.539,8.63-16.196,12.821C223.876,663.747,225.266,665.872,226.822,668.047 M277.85,644.437l-0.028,0.009
								c-1.445-3.812-3.37-7.316-5.69-10.546c-0.781,0.146-1.602,0.32-2.51,0.546c-3.201,0.9-6.6,2-10.5,3.7
								c-0.369,0.154-0.744,0.323-1.116,0.484c1.232,1.963,2.47,4.062,3.709,6.327l0.005-0.011c2.212,4.077,4.027,7.991,5.452,11.75
								c0.249-0.116,0.502-0.237,0.748-0.35c3.5-1.6,6.701-2.7,9.5-3.4c0.914-0.134,1.702-0.253,2.381-0.355
								C279.414,649.845,278.766,647.124,277.85,644.437 M273.138,633.717c2.055,3.282,3.712,6.813,4.984,10.63l-0.027,0.009
								c1.009,2.709,1.777,5.419,2.311,8.143c1.451-0.224,2.216-0.352,2.216-0.352c0.976,0,1.868,0.166,2.696,0.473
								c0.13,0.962,0.213,1.923,0.273,2.884c-1.07-0.741-2.666-1.048-4.814-0.927c0.519,3.456,0.641,6.939,0.345,10.47
								c-0.271,2.977-0.832,5.784-1.666,8.443c1.08-0.155,2.162-0.234,3.241-0.238c-0.312,0.78-0.645,1.555-1.008,2.313
								c-0.934-0.034-1.934,0.016-3.005,0.157c-0.98,2.546-2.23,4.945-3.745,7.209c0.128,0.034,0.254,0.073,0.382,0.116
								c0.399,0.2,0.7,0.4,0.899,0.7c0.05,0.073,0.087,0.148,0.114,0.223c-4.562,5.537-10.641,9.945-17.899,12.503
								c-0.632,0.222-1.266,0.427-1.901,0.616c-0.105-0.095-0.209-0.203-0.314-0.343c-0.099-0.2-0.199-0.5-0.199-0.9
								c0-0.178,0.018-0.356,0.048-0.534c-2.668,0.493-5.364,0.673-8.072,0.546c-0.577,0.995-1.027,1.962-1.352,2.9
								c-0.842,0.037-1.681,0.048-2.517,0.034c0.422-1.073,0.943-2.11,1.549-3.118c-2.711-0.302-5.434-0.909-8.156-1.828
								c-3.463-1.12-6.69-2.608-9.699-4.454c-0.959,2.027-1.225,3.68-0.801,4.954l-0.281,0.186c-0.809-0.402-1.605-0.83-2.387-1.284
								c-0.067-1.155,0.144-2.295,0.668-3.402c0.055-0.17,0.375-0.733,0.939-1.663c-2.201-1.509-4.281-3.218-6.24-5.138
								c-3.056-2.652-5.732-5.68-8.019-8.987c-1.52,2.498-2.029,4.334-1.38,5.487l-0.063,0.043
								c-0.723-1.161-1.393-2.367-2.004-3.617c0.17-0.52,0.392-1.029,0.666-1.526c0.369-0.685,0.886-1.46,1.518-2.312
								c-1.158-1.855-2.209-3.782-3.117-5.787c-1.232-2.7-2.151-5.433-2.801-8.184c-0.148,0.316-0.302,0.63-0.437,0.947
								c-0.12-4.362,0.469-8.665,1.693-12.759c-0.175,1.941-0.21,3.88-0.115,5.817c2.168-2.882,4.777-5.636,7.835-8.297
								c-0.879-3.713-1.159-7.349-0.832-10.909c0.938-1.209,1.941-2.37,3.016-3.471c-1.27,4.043-1.505,8.434-0.718,13.155
								c2.427-1.863,6.818-4.882,13.168-9.112l-6.386-9.152c0.648-0.445,1.307-0.877,1.986-1.287l5.846,9.478
								c0.254-0.169,0.505-0.336,0.764-0.509l-0.019-0.02c4.394-2.956,8.731-5.564,13.011-7.743
								c-4.013-2.67-8.112-4.229-12.299-4.68c0.091-0.034,0.18-0.072,0.273-0.104c1.361-0.48,2.732-0.88,4.105-1.21
								c3.378,1.098,6.588,2.806,9.657,5.134c0.788-0.379,1.571-0.747,2.352-1.096c2.683-1.258,5.291-2.217,7.833-2.913
								c-1.389-0.675-2.806-1.273-4.256-1.775c3.42,0.523,6.745,1.475,9.898,2.823c-0.036,0-0.077,0.002-0.114,0.002
								c2.3,1.674,4.484,3.588,6.541,5.763c1.748,1.819,3.304,3.743,4.7,5.763c0.821-0.195,1.75-0.42,2.8-0.662
								c0.298-0.038,0.593-0.059,0.883-0.066c0.692,0.799,1.36,1.621,1.993,2.479C276.625,633.428,275.122,633.415,273.138,633.717"
								/>
							<g id="g12">
								<g id="g52">
								</g>
								<g id="g14">
									<g id="g50" inkscape:export-filename="/private/tmp/g20.png" inkscape:export-xdpi="49" inkscape:export-ydpi="49">
										<g id="g70">
											<defs>
												<rect id="SVGID_5_" x="193.819" y="607.218" width="102.023" height="102.021"/>
											</defs>
											<clipPath id="SVGID_6_">
												<use xlink:href="#SVGID_5_"  overflow="visible"/>
											</clipPath>
											<g id="g72" opacity="0.75" clip-path="url(#SVGID_6_)">
												<g id="g74">
													<g id="g76">
														<g id="g78">
															<g id="g80">
																
																	<radialGradient id="path82_1_" cx="119.9695" cy="106.574" r="0.9994" gradientTransform="matrix(135.9462 0 0 -135.9462 -16052.8877 15144.5547)" gradientUnits="userSpaceOnUse">
																	<stop  offset="0" style="stop-color:#FFFFFF"/>
																	<stop  offset="0.2921" style="stop-color:#F4F24C"/>
																	<stop  offset="1" style="stop-color:#F46E16"/>
																</radialGradient>
																<path id="path82" fill="url(#path82_1_)" d="M283.309,644.666c-7.491-21.25-30.791-32.405-52.041-24.915
																	c-21.25,7.49-32.404,30.79-24.914,52.04c7.492,21.251,30.791,32.405,52.042,24.915
																	C279.644,689.214,290.797,665.915,283.309,644.666"/>
															</g>
														</g>
													</g>
												</g>
											</g>
										</g>
									</g>
								</g>
							</g>
						</g>
					</g>
				</g>
			</g>
		</g>
	</g>
</g>
</svg>
