<?xml version="1.0" encoding="UTF-8" standalone="no"?>
<!-- Created with Inkscape (http://www.inkscape.org/) -->

<svg
   xmlns:dc="http://purl.org/dc/elements/1.1/"
   xmlns:cc="http://creativecommons.org/ns#"
   xmlns:rdf="http://www.w3.org/1999/02/22-rdf-syntax-ns#"
   xmlns:svg="http://www.w3.org/2000/svg"
   xmlns="http://www.w3.org/2000/svg"
   xmlns:sodipodi="http://sodipodi.sourceforge.net/DTD/sodipodi-0.dtd"
   xmlns:inkscape="http://www.inkscape.org/namespaces/inkscape"
   id="svg2"
   version="1.1"
   inkscape:version="0.48.0 r9654"
   width="765"
   height="990"
   xml:space="preserve"
   sodipodi:docname="LogoStandalone-globeOnly.pdf"
   inkscape:export-filename="/private/tmp/LogoStandalone-globeOnly.png"
   inkscape:export-xdpi="49"
   inkscape:export-ydpi="49"><metadata
     id="metadata8"><rdf:RDF><cc:Work
         rdf:about=""><dc:format>image/svg+xml</dc:format><dc:type
           rdf:resource="http://purl.org/dc/dcmitype/StillImage" /><dc:title></dc:title></cc:Work></rdf:RDF></metadata><defs
     id="defs6"><clipPath
       clipPathUnits="userSpaceOnUse"
       id="clipPath16"><path
         d="M 0,792 612,792 612,0 0,0 0,792 z"
         id="path18" /></clipPath><clipPath
       clipPathUnits="userSpaceOnUse"
       id="clipPath24"><path
         d="m 204.021,699.037 81.619,0 0,-81.617 -81.619,0 0,81.617 z"
         id="path26" /></clipPath><clipPath
       clipPathUnits="userSpaceOnUse"
       id="clipPath54"><path
         d="m 204.021,699.037 81.619,0 0,-81.617 -81.619,0 0,81.617 z"
         id="path56" /></clipPath><radialGradient
       fx="0"
       fy="0"
       cx="0"
       cy="0"
       r="1"
       gradientUnits="userSpaceOnUse"
       gradientTransform="matrix(87.005646,0,0,-87.005646,256.55762,656.23438)"
       spreadMethod="pad"
       id="radialGradient62"><stop
         style="stop-opacity:1;stop-color:#ffffff"
         offset="0"
         id="stop64" /><stop
         style="stop-opacity:1;stop-color:#f4f24c"
         offset="0.292135"
         id="stop66" /><stop
         style="stop-opacity:1;stop-color:#f46e16"
         offset="1"
         id="stop68" /></radialGradient></defs><sodipodi:namedview
     pagecolor="#ffffff"
     bordercolor="#666666"
     borderopacity="1"
     objecttolerance="10"
     gridtolerance="10"
     guidetolerance="10"
     inkscape:pageopacity="0"
     inkscape:pageshadow="2"
     inkscape:window-width="640"
     inkscape:window-height="480"
     id="namedview4"
     showgrid="false"
     inkscape:zoom="0.98491553"
     inkscape:cx="358.85794"
     inkscape:cy="766.88371"
     inkscape:window-x="0"
     inkscape:window-y="0"
     inkscape:window-maximized="0"
     inkscape:current-layer="g14" /><g
     id="g10"
     inkscape:groupmode="layer"
     inkscape:label="LogoStandalone"
     transform="matrix(1.25,0,0,-1.25,0,990)"><g
       id="g12"><g
         id="g14"
         clip-path="url(#clipPath16)"><path
           sodipodi:type="arc"
           style="fill:#ffffff"
           id="path3124"
           sodipodi:cx="390.89645"
           sodipodi:cy="127.99715"
           sodipodi:rx="57.872982"
           sodipodi:ry="43.658566"
           d="m 448.76944,127.99715 a 57.872982,43.658566 0 1 1 -115.74597,0 57.872982,43.658566 0 1 1 115.74597,0 z"
           transform="matrix(0.6877193,0,0,-0.90232559,-17.028801,768.95215)"
           inkscape:export-xdpi="49"
           inkscape:export-ydpi="49" /><g
           id="g20"
           inkscape:export-xdpi="49"
           inkscape:export-ydpi="49"><g
             id="g22" /><g
             id="g28"><g
               clip-path="url(#clipPath24)"
               id="g30"><path
                 d="m 283.309,644.666 c -7.491,-21.25 -30.791,-32.405 -52.043,-24.915 -21.25,7.491 -32.405,30.79 -24.914,52.04 7.492,21.251 30.791,32.405 52.043,24.915 21.25,-7.492 32.402,-30.791 24.914,-52.04"
                 style="fill:#f39615;fill-opacity:1;fill-rule:nonzero;stroke:none"
                 id="path32" /></g></g></g><path
           d="m 266.421,627.246 c -2.726,-2.571 -5.611,-4.738 -8.654,-6.488 -0.184,0.03 -0.357,0.052 -0.546,0.088 -1.899,0.4 -5,1.3 -9.199,2.8 -0.607,0.23 -1.216,0.473 -1.824,0.718 1.125,0.919 2.236,1.894 3.324,2.982 2.5,2.63 5.125,6.05 7.796,10.191 0.401,-0.197 0.804,-0.4 1.204,-0.591 4.1,-2 7.6,-3.4 10.6,-4.3 0.481,-0.081 1.08,-0.21 1.788,-0.375 -1.379,-1.758 -2.87,-3.438 -4.489,-5.025 m -35.899,5 -0.017,-0.017 c -0.271,0.196 -0.523,0.381 -0.788,0.573 l 9.547,15.478 c 5.987,-4.185 11.816,-7.647 17.484,-10.465 -3.992,-5.461 -8.079,-9.718 -12.263,-12.735 -4.625,1.977 -9.262,4.377 -13.963,7.166 m -15.262,11.965 c 1.076,5.093 3.318,10.558 6.716,16.372 4.805,-4.046 10.342,-8.079 16.689,-11.954 l -10.339,-14.816 c -5.887,4.311 -10.222,7.825 -13.066,10.398 m -9.316,11.21 c 0.449,3.459 1.33,6.906 2.678,10.325 0.724,1.914 1.563,3.743 2.494,5.505 0.403,-0.511 0.829,-1.041 1.305,-1.605 2.201,-2.5 4.901,-5.1 8.3,-8 0.244,-0.211 0.501,-0.423 0.75,-0.635 -2.622,-3.997 -4.658,-7.712 -6.05,-11.065 -0.598,-1.497 -1.08,-2.979 -1.495,-4.452 -3.386,3.309 -6.047,6.618 -7.982,9.927 m 13.878,27.325 0,0 c 2.055,1.862 4.219,3.477 6.486,4.869 0.386,-0.63 0.852,-1.378 1.413,-2.269 1.801,-2.2 4,-4.6 6.901,-7.3 0.135,-0.119 0.276,-0.236 0.414,-0.355 -2.81,-2.753 -5.604,-5.912 -8.381,-9.479 l -0.033,0.034 c -1.628,-2.128 -3.1,-4.188 -4.447,-6.189 -0.217,0.196 -0.44,0.393 -0.653,0.589 -3.2,3.1 -5.7,5.9 -7.601,8.2 -0.652,0.855 -1.204,1.643 -1.695,2.391 2.07,3.484 4.584,6.657 7.596,9.509 m 18,9.8 c 3.084,0.793 6.108,1.215 9.068,1.301 1.237,-1.674 2.738,-3.259 4.494,-4.768 -5.162,-2.187 -10.28,-5.66 -15.345,-10.441 -0.137,0.135 -0.283,0.273 -0.417,0.408 -3.595,3.807 -6.061,7.02 -7.45,9.653 3.037,1.658 6.252,2.934 9.65,3.847 m 20,-0.1 0.03,0.088 c 0.089,-0.096 0.175,-0.195 0.27,-0.288 0.246,-0.281 0.526,-0.576 0.826,-0.873 -2.038,-0.37 -4.07,-0.932 -6.096,-1.694 -1.394,1.433 -2.572,2.819 -3.538,4.156 2.906,-0.111 5.748,-0.557 8.508,-1.389 m 0.3,2.9 0,0.2 c 0.5,0 0.9,0 1.4,-0.2 2,-0.6 4.5,-1.8 7.6,-3.8 2.299,-1.5 4,-2.9 5.5,-4.3 0.7,-0.7 1.2,-1.3 1.5,-1.7 l 0.299,-0.6 0,-0.1 c -0.299,0 -0.799,0.2 -1.5,0.3 -2.099,0.6 -4.599,1.9 -7.5,3.8 -1.599,1.1 -2.7,1.9 -3.299,2.4 -1.201,1 -2.3,2 -3.1,2.9 -0.156,0.104 -0.286,0.236 -0.428,0.421 l 0.028,0.079 c -0.035,0.009 -0.069,0.014 -0.102,0.023 -0.115,0.156 -0.239,0.337 -0.398,0.577 m 12.889,-17.547 c -0.117,2.177 -0.421,4.281 -0.911,6.313 0.524,-0.258 1.048,-0.46 1.573,-0.632 1.863,-2.222 3.409,-4.682 4.668,-7.332 -1.642,0.373 -3.419,0.923 -5.33,1.651 m 8.71,-12.853 c 0.545,-3.466 0.645,-6.907 0.332,-10.312 -2.952,0.276 -6.819,1.256 -11.632,2.912 -0.272,0.109 -0.548,0.227 -0.822,0.339 2.376,6.6 3.52,12.707 3.452,18.337 0.123,-0.059 0.259,-0.127 0.37,-0.176 1.968,-0.984 3.935,-1.698 5.902,-2.162 1.103,-2.792 1.914,-5.772 2.398,-8.938 m -36.176,-9.724 0.077,-0.076 7.514,10.85 c 5.45,-3.744 10.585,-6.711 15.339,-8.973 -1.231,-3.778 -2.847,-7.736 -4.853,-11.877 -1.363,-2.252 -2.738,-4.34 -4.124,-6.294 -5.663,2.496 -11.721,5.775 -18.108,9.633 l 4.155,6.737 z m 9.511,32.546 c 1.587,-1.188 4,-2.892 7.179,-5.027 l -9.823,-16.005 c -5.486,3.839 -10.017,7.668 -13.74,11.283 5.505,4.721 10.967,7.978 16.384,9.749 m 13.78,-29.568 c -4.879,2.044 -10.063,4.647 -15.555,8.007 l 10.71,15.465 c 3.059,-2.021 5.458,-3.501 7.221,-4.486 0.569,-5.687 -0.236,-12.023 -2.376,-18.986 m 0.385,27.345 c 0.868,-2.19 1.46,-4.509 1.807,-6.945 -2.131,0.904 -4.418,2.015 -6.857,3.332 l 3.244,4.682 c 0.616,-0.377 1.22,-0.738 1.806,-1.069 m -5.806,3.792 c 0.551,-0.446 1.21,-0.927 1.981,-1.446 l -2.977,-4.85 c -2.284,1.766 -4.3,3.474 -6.034,5.119 2.351,0.665 4.696,1.067 7.03,1.177 m -34.593,-21.291 -0.008,0.007 c 2.963,3.455 5.913,6.488 8.851,9.1 4.311,-3.678 9.12,-7.269 14.574,-10.7 l -6.771,-11.03 -0.047,0.023 -4.61,-6.607 c -6.143,4.356 -11.539,8.629 -16.196,12.821 1.261,2.086 2.651,4.212 4.207,6.386 m 51.028,-23.609 -0.028,0.009 c -1.445,-3.812 -3.37,-7.315 -5.69,-10.546 -0.781,0.146 -1.602,0.319 -2.51,0.546 -3.201,0.9 -6.6,2 -10.5,3.7 -0.369,0.154 -0.744,0.323 -1.116,0.484 1.232,1.963 2.47,4.063 3.71,6.327 l 0.005,-0.011 c 2.213,4.077 4.027,7.992 5.452,11.75 0.249,-0.115 0.502,-0.238 0.748,-0.35 3.5,-1.6 6.701,-2.7 9.5,-3.4 0.914,-0.134 1.702,-0.253 2.381,-0.356 -0.388,-2.745 -1.036,-5.466 -1.952,-8.153 m -4.712,-10.72 c 2.056,3.282 3.712,6.813 4.984,10.629 l -0.027,0.008 c 1.009,2.71 1.778,5.42 2.311,8.143 1.451,-0.224 2.216,-0.351 2.216,-0.351 0.976,0 1.868,0.166 2.696,0.472 0.13,0.963 0.213,1.924 0.273,2.885 -1.068,-0.741 -2.665,-1.048 -4.814,-0.928 0.519,3.457 0.642,6.939 0.345,10.471 -0.271,2.976 -0.832,5.784 -1.666,8.443 1.081,-0.155 2.163,-0.233 3.242,-0.239 -0.314,0.781 -0.645,1.555 -1.008,2.314 -0.934,-0.034 -1.935,0.016 -3.005,0.157 -0.979,2.546 -2.229,4.945 -3.745,7.209 0.128,0.034 0.254,0.073 0.382,0.116 0.399,0.2 0.7,0.4 0.899,0.7 0.05,0.074 0.087,0.149 0.114,0.224 -4.562,5.537 -10.641,9.944 -17.899,12.503 -0.632,0.222 -1.266,0.426 -1.901,0.616 -0.104,-0.095 -0.208,-0.203 -0.314,-0.343 -0.099,-0.2 -0.199,-0.5 -0.199,-0.9 0,-0.178 0.018,-0.356 0.048,-0.533 -2.668,0.493 -5.364,0.673 -8.072,0.546 -0.577,0.995 -1.027,1.962 -1.352,2.9 -0.842,0.037 -1.681,0.048 -2.517,0.033 0.422,-1.073 0.943,-2.11 1.549,-3.118 -2.711,-0.302 -5.434,-0.908 -8.156,-1.828 -3.463,-1.12 -6.69,-2.608 -9.699,-4.454 -0.959,2.027 -1.225,3.681 -0.801,4.954 l -0.281,0.186 c -0.809,-0.401 -1.605,-0.83 -2.387,-1.285 -0.067,-1.154 0.144,-2.295 0.668,-3.401 0.055,-0.169 0.375,-0.733 0.939,-1.662 -2.201,-1.508 -4.281,-3.218 -6.24,-5.138 -3.056,-2.652 -5.732,-5.68 -8.019,-8.987 -1.52,2.499 -2.029,4.335 -1.38,5.487 l -0.063,0.043 c -0.723,-1.161 -1.393,-2.367 -2.004,-3.617 0.17,-0.52 0.392,-1.029 0.666,-1.526 0.369,-0.685 0.886,-1.46 1.518,-2.312 -1.158,-1.856 -2.209,-3.782 -3.117,-5.788 -1.232,-2.7 -2.151,-5.433 -2.801,-8.184 -0.148,0.316 -0.302,0.631 -0.437,0.947 -0.12,-4.363 0.469,-8.665 1.693,-12.759 -0.175,1.94 -0.21,3.879 -0.115,5.817 2.168,-2.882 4.777,-5.636 7.835,-8.297 -0.879,-3.713 -1.159,-7.349 -0.832,-10.909 0.938,-1.209 1.941,-2.369 3.016,-3.471 -1.27,4.043 -1.505,8.434 -0.718,13.155 2.427,-1.863 6.818,-4.882 13.168,-9.111 l -6.386,-9.151 c 0.648,-0.445 1.307,-0.878 1.986,-1.287 l 5.846,9.478 c 0.254,-0.169 0.505,-0.336 0.764,-0.508 l -0.019,-0.02 c 4.394,-2.956 8.731,-5.564 13.011,-7.743 -4.013,-2.669 -8.112,-4.229 -12.299,-4.68 0.091,-0.034 0.18,-0.072 0.273,-0.104 1.361,-0.48 2.732,-0.881 4.105,-1.21 3.378,1.098 6.588,2.806 9.657,5.133 0.787,-0.379 1.571,-0.747 2.352,-1.096 2.683,-1.258 5.291,-2.217 7.833,-2.912 -1.389,-0.675 -2.806,-1.273 -4.256,-1.775 3.418,0.522 6.743,1.475 9.897,2.822 -0.036,0 -0.077,0.003 -0.114,0.003 2.3,1.674 4.485,3.588 6.541,5.762 1.748,1.819 3.304,3.743 4.7,5.763 0.821,-0.196 1.75,-0.421 2.8,-0.663 0.298,-0.037 0.593,-0.059 0.883,-0.066 0.692,0.799 1.36,1.621 1.993,2.479 -1.073,-0.332 -2.576,-0.345 -4.56,-0.042"
           style="fill:#f7ef44;fill-opacity:1;fill-rule:nonzero;stroke:none"
           id="path48"
           inkscape:export-filename="/private/tmp/g20.png"
           inkscape:export-xdpi="49"
           inkscape:export-ydpi="49" /><g
           id="g50"
           inkscape:export-filename="/private/tmp/g20.png"
           inkscape:export-xdpi="49"
           inkscape:export-ydpi="49"><g
             id="g52" /><g
             id="g70"><g
               clip-path="url(#clipPath54)"
               opacity="0.75"
               id="g72"><g
                 id="g74"><g
                   id="g76"><g
                     id="g78"><g
                       id="g80"><path
                         d="m 283.309,644.666 c -7.491,-21.25 -30.792,-32.405 -52.042,-24.915 -21.25,7.491 -32.404,30.79 -24.914,52.04 7.492,21.251 30.791,32.405 52.042,24.915 21.249,-7.492 32.402,-30.791 24.914,-52.04"
                         style="fill:url(#radialGradient62);stroke:none"
                         id="path82" /></g></g></g></g></g></g></g></g></g></g></svg>